<svg width="395" height="70" viewBox="0 0 395 70" fill="none" xmlns="http://www.w3.org/2000/svg">
<path d="M46.3699 44.61C51.5401 47.169 57.2311 48.5002 62.9999 48.5002C68.7687 48.5002 74.4597 47.169 79.6299 44.61L77.3699 40C76.1382 37.5131 75.4982 34.7752 75.4999 32V27.56C75.5118 27.0735 75.352 26.5983 75.0484 26.2179C74.7448 25.8375 74.3169 25.5762 73.8399 25.48C73.5503 25.43 73.2532 25.4444 72.9698 25.5223C72.6864 25.6002 72.4236 25.7395 72.2002 25.9305C71.9768 26.1215 71.7982 26.3593 71.6772 26.6271C71.5561 26.8949 71.4956 27.1861 71.4999 27.48V28.16L63.8899 12.8C63.806 12.6362 63.6785 12.4987 63.5214 12.4027C63.3644 12.3068 63.1839 12.256 62.9999 12.256C62.8158 12.256 62.6354 12.3068 62.4783 12.4027C62.3213 12.4987 62.1938 12.6362 62.1099 12.8L59.4999 18.07V16C59.4999 15.6022 59.3418 15.2206 59.0605 14.9393C58.7792 14.658 58.3977 14.5 57.9999 14.5C57.6021 14.5 57.2205 14.658 56.9392 14.9393C56.6579 15.2206 56.4999 15.6022 56.4999 16V21.8C56.5151 23.3343 56.1727 24.851 55.4999 26.23C54.2399 28.79 52.8899 31.5 51.4999 34.23V31.5C51.4999 31.1022 51.3418 30.7206 51.0605 30.4393C50.7792 30.158 50.3977 30 49.9999 30C49.6021 30 49.2205 30.158 48.9392 30.4393C48.6579 30.7206 48.4999 31.1022 48.4999 31.5V38C48.5105 39.537 48.1684 41.0559 47.4999 42.44L46.3699 44.61Z" fill="#FFE500"/>
<path d="M62.9999 45.25C57.7071 45.2512 52.4746 44.1263 47.6499 41.95C47.5899 42.1 47.5299 42.26 47.4599 42.4L46.3699 44.61C51.5401 47.169 57.2311 48.5002 62.9999 48.5002C68.7687 48.5002 74.4597 47.169 79.6299 44.61L78.3199 42C73.5006 44.1547 68.2789 45.2624 62.9999 45.25Z" fill="#EBCB00"/>
<path d="M56.5 33.5C57.6934 33.5 58.838 33.0259 59.6819 32.182C60.5259 31.3381 61 30.1935 61 29C61 27.8065 60.5259 26.6619 59.6819 25.818C58.838 24.9741 57.6934 24.5 56.5 24.5H56.31C55.2 26.73 54.02 29.12 52.82 31.56C53.2301 32.1575 53.7794 32.6462 54.4205 32.9842C55.0616 33.3222 55.7753 33.4992 56.5 33.5ZM63.5 23C63.4986 23.5913 63.6141 24.1771 63.8398 24.7236C64.0655 25.2702 64.3969 25.7668 64.815 26.1849C65.2332 26.603 65.7298 26.9345 66.2763 27.1601C66.8229 27.3858 67.4086 27.5013 68 27.5C68.9812 27.498 69.9342 27.171 70.71 26.57L66.8 18.68C65.8532 18.9402 65.0179 19.5036 64.4219 20.2838C63.8259 21.0641 63.502 22.0182 63.5 23ZM61 41.5C61 40.3065 60.5259 39.1619 59.6819 38.318C58.838 37.4741 57.6934 37 56.5 37C55.3065 37 54.1619 37.4741 53.318 38.318C52.4741 39.1619 52 40.3065 52 41.5C52 42.6935 52.4741 43.8381 53.318 44.682C54.1619 45.5259 55.3065 46 56.5 46C57.6934 46 58.838 45.5259 59.6819 44.682C60.5259 43.8381 61 42.6935 61 41.5Z" fill="#FF6242" stroke="#45413C" stroke-linecap="round" stroke-linejoin="round"/>
<path d="M62.9999 48.5C57.2302 48.508 51.5374 47.1764 46.3699 44.61C46.3699 44.61 43.8999 44.3 43.4999 46.5C42.4999 52 58.8299 53.5 62.9999 53.5C67.1699 53.5 83.4999 52 82.4999 46.5C82.0999 44.3 79.6299 44.61 79.6299 44.61C74.4624 47.1764 68.7696 48.508 62.9999 48.5Z" fill="#F0D5A8"/>
<path d="M82.4601 46.34C78.8201 49.93 66.6001 51 63.0001 51C59.4001 51 47.1801 49.93 43.5401 46.34V46.5C42.5401 52 58.8701 53.5 63.0401 53.5C67.2101 53.5 83.5001 52 82.5001 46.5C82.4901 46.44 82.4701 46.4 82.4601 46.34Z" fill="#F7E5C6"/>
<path d="M62.9999 48.5C57.2302 48.508 51.5374 47.1764 46.3699 44.61C46.3699 44.61 43.8999 44.3 43.4999 46.5C42.4999 52 58.8299 53.5 62.9999 53.5C67.1699 53.5 83.4999 52 82.4999 46.5C82.0999 44.3 79.6299 44.61 79.6299 44.61C74.4624 47.1764 68.7696 48.508 62.9999 48.5Z" stroke="#45413C" stroke-linecap="round" stroke-linejoin="round"/>
<path d="M74.5 39C74.5 37.8065 74.0259 36.6619 73.182 35.818C72.3381 34.9741 71.1935 34.5 70 34.5C68.8065 34.5 67.6619 34.9741 66.818 35.818C65.9741 36.6619 65.5 37.8065 65.5 39C65.5 40.1935 65.9741 41.3381 66.818 42.182C67.6619 43.0259 68.8065 43.5 70 43.5C71.1935 43.5 72.3381 43.0259 73.182 42.182C74.0259 41.3381 74.5 40.1935 74.5 39Z" fill="#FF6242" stroke="#45413C" stroke-linecap="round" stroke-linejoin="round"/>
<path d="M71.4999 28.18V30.5M59.4999 18.07L62.1099 12.8C62.1938 12.6362 62.3213 12.4987 62.4783 12.4027C62.6354 12.3068 62.8158 12.256 62.9999 12.256C63.1839 12.256 63.3644 12.3068 63.5214 12.4027C63.6785 12.4987 63.806 12.6362 63.8899 12.8L71.4999 28.16V27.48C71.4956 27.1861 71.5561 26.8949 71.6772 26.6271C71.7982 26.3593 71.9768 26.1215 72.2002 25.9305C72.4236 25.7395 72.6864 25.6002 72.9698 25.5223C73.2532 25.4444 73.5503 25.43 73.8399 25.48C74.3169 25.5762 74.7448 25.8375 75.0484 26.2179C75.352 26.5983 75.5118 27.0735 75.4999 27.56V32C75.4982 34.7752 76.1382 37.5131 77.3699 40L79.6299 44.61C74.4597 47.169 68.7687 48.5002 62.9999 48.5002C57.2311 48.5002 51.5401 47.169 46.3699 44.61L47.4999 42.44C48.1684 41.0559 48.5105 39.537 48.4999 38V31.5C48.4999 31.1022 48.6579 30.7206 48.9392 30.4393C49.2205 30.158 49.6021 30 49.9999 30C50.3977 30 50.7792 30.158 51.0605 30.4393C51.3418 30.7206 51.4999 31.1022 51.4999 31.5V34.23C52.8899 31.5 54.2399 28.79 55.4999 26.23C56.1727 24.851 56.5151 23.3343 56.4999 21.8V16C56.4999 15.6022 56.6579 15.2206 56.9392 14.9393C57.2205 14.658 57.6021 14.5 57.9999 14.5C58.3977 14.5 58.7792 14.658 59.0605 14.9393C59.3418 15.2206 59.4999 15.6022 59.4999 16V18.07ZM59.4999 18.07V20.5M51.4999 36V34.24" stroke="#45413C" stroke-linecap="round" stroke-linejoin="round"/>
<path d="M36.344 47.968C36.3067 48.416 36.2507 48.8827 36.176 49.368C36.1013 49.8533 35.9707 50.3013 35.784 50.712C35.5973 51.16 35.3547 51.496 35.056 51.72C34.6453 52.0933 34.16 52.2987 33.6 52.336C33.0773 52.5227 32.5733 52.5787 32.088 52.504C31.6027 52.4293 31.1547 52.2987 30.744 52.112C30.2213 51.776 29.8293 51.384 29.568 50.936C29.344 50.4507 29.176 49.9467 29.064 49.424C28.952 48.9013 28.896 48.36 28.896 47.8C28.896 47.24 28.896 46.7173 28.896 46.232V41.864L28.84 33.296C28.84 32.6987 28.84 32.232 28.84 31.896C28.84 31.56 28.84 31.2613 28.84 31C28.84 30.7013 28.8213 30.384 28.784 30.048C28.784 29.6747 28.784 29.152 28.784 28.48C28.784 28.368 28.784 28.1813 28.784 27.92C28.8213 27.6213 28.8027 26.856 28.728 25.624C27.272 28.0507 26.0587 30.0107 25.088 31.504C24.1547 32.96 23.352 34.0987 22.68 34.92C22.0453 35.704 21.4853 36.2453 21 36.544C20.5147 36.8053 20.0107 36.9547 19.488 36.992C19.1893 37.0293 18.8907 36.9733 18.592 36.824C18.2933 36.6747 17.9947 36.488 17.696 36.264C17.4347 36.04 17.1733 35.816 16.912 35.592C16.688 35.3307 16.5013 35.088 16.352 34.864C15.456 33.744 14.448 32.4 13.328 30.832C12.208 29.264 11.0507 27.36 9.856 25.12C9.856 25.1573 9.83733 25.7733 9.8 26.968C9.8 28.1627 9.8 29.656 9.8 31.448C9.8 33.2027 9.78133 35.1067 9.744 37.16C9.744 39.176 9.72533 41.0613 9.688 42.816C9.688 44.5707 9.66933 46.0453 9.632 47.24C9.59467 48.3973 9.55733 48.976 9.52 48.976C9.52 49.6107 9.37067 50.208 9.072 50.768C8.77333 51.2907 8.36267 51.72 7.84 52.056C7.35467 52.392 6.776 52.5787 6.104 52.616C5.432 52.6533 4.704 52.4667 3.92 52.056C3.43467 51.7573 3.06133 51.328 2.8 50.768C2.576 50.208 2.42667 49.6853 2.352 49.2C2.31467 48.6773 2.27733 48.1733 2.24 47.688C2.24 47.2027 2.24 46.6987 2.24 46.176L2.296 41.808L2.352 33.184V25.68C2.352 22.432 2.464 19.24 2.688 16.104C2.688 15.6933 2.72533 15.32 2.8 14.984C2.912 14.6107 3.04267 14.256 3.192 13.92C3.49067 13.3227 3.88267 12.8747 4.368 12.576C4.928 12.24 5.52533 12.072 6.16 12.072C6.42133 12.072 6.664 12.0907 6.888 12.128C7.14933 12.128 7.392 12.1467 7.616 12.184C8.36267 12.3333 8.99733 12.7813 9.52 13.528C10.08 14.2373 10.6027 14.8533 11.088 15.376C11.3867 15.712 11.704 16.1227 12.04 16.608C12.376 17.0933 12.712 17.5973 13.048 18.12C13.384 18.6427 13.7013 19.1467 14 19.632C14.2987 20.1173 14.56 20.5467 14.784 20.92C15.7547 22.488 16.6133 23.9253 17.36 25.232C18.144 26.5387 18.872 27.6587 19.544 28.592C19.656 28.48 19.7867 28.3307 19.936 28.144C20.0853 27.92 20.2347 27.696 20.384 27.472C20.5707 27.2107 20.72 26.968 20.832 26.744C20.9813 26.52 21.0933 26.3333 21.168 26.184C21.5413 25.5867 21.9147 25.008 22.288 24.448C22.6613 23.8507 23.0533 23.2347 23.464 22.6C23.912 21.928 24.36 21.2 24.808 20.416C25.2933 19.632 25.8533 18.736 26.488 17.728C26.7493 17.28 27.0853 16.7387 27.496 16.104C27.9067 15.4693 28.3733 14.8533 28.896 14.256C29.4187 13.6587 29.96 13.1547 30.52 12.744C31.1173 12.296 31.7147 12.072 32.312 12.072C32.6107 12.072 32.872 12.0907 33.096 12.128C33.32 12.128 33.544 12.1467 33.768 12.184C34.216 12.2213 34.6453 12.4267 35.056 12.8C35.3547 13.0987 35.5787 13.416 35.728 13.752C35.8773 14.2373 35.9707 14.648 36.008 14.984C36.0453 15.2453 36.064 15.488 36.064 15.712C36.1013 15.936 36.12 16.16 36.12 16.384C36.12 18.4747 36.1387 20.5467 36.176 22.6C36.2133 24.6533 36.232 26.7253 36.232 28.816C36.232 31.3547 36.232 33.968 36.232 36.656C36.2693 39.344 36.288 41.9573 36.288 44.496C36.288 45.0187 36.3067 45.5787 36.344 46.176C36.3813 46.7733 36.3813 47.3707 36.344 47.968Z" fill="#FF9F0D"/>
<path d="M118.136 49.536C118.173 49.9093 118.136 50.264 118.024 50.6C117.949 50.824 117.837 51.0107 117.688 51.16C117.576 51.3093 117.427 51.4587 117.24 51.608C116.904 51.832 116.493 52.0373 116.008 52.224C115.709 52.2987 115.411 52.3547 115.112 52.392C114.851 52.4667 114.571 52.4667 114.272 52.392C113.675 52.3547 113.152 52.1307 112.704 51.72C112.069 51.1973 111.547 50.6187 111.136 49.984C110.949 49.6853 110.744 49.3493 110.52 48.976C110.296 48.6027 110.091 48.2107 109.904 47.8L103.688 35.984C103.389 35.984 103.091 36.0027 102.792 36.04C102.493 36.04 102.195 36.0587 101.896 36.096C101.112 36.1707 100.365 36.1893 99.656 36.152C98.984 36.1147 98.2747 36.1147 97.528 36.152H96.464V46.288C96.464 46.5867 96.4453 46.8667 96.408 47.128C96.408 47.3893 96.408 47.6693 96.408 47.968C96.408 48.1547 96.3893 48.3973 96.352 48.696C96.352 48.9947 96.3333 49.2747 96.296 49.536C96.2213 49.9467 96.0533 50.376 95.792 50.824C95.5307 51.2347 95.176 51.5893 94.728 51.888C93.944 52.3733 92.992 52.504 91.872 52.28C91.3867 52.168 90.92 51.9813 90.472 51.72C90.3227 51.608 90.192 51.4773 90.08 51.328C89.968 51.1413 89.8747 50.9547 89.8 50.768C89.7253 50.5813 89.6507 50.3947 89.576 50.208C89.5387 49.984 89.4827 49.7787 89.408 49.592C89.296 49.2187 89.24 48.864 89.24 48.528V16.72C89.24 16.496 89.24 16.272 89.24 16.048C89.2773 15.7867 89.3147 15.5627 89.352 15.376C89.3893 14.9653 89.52 14.5547 89.744 14.144C89.856 13.696 90.0427 13.3787 90.304 13.192C90.528 12.968 90.864 12.7813 91.312 12.632C91.7973 12.4453 92.488 12.3707 93.384 12.408C95.064 12.4453 96.7253 12.464 98.368 12.464C100.011 12.464 101.653 12.5013 103.296 12.576C104.379 12.6507 105.517 12.7813 106.712 12.968C107.944 13.1173 109.083 13.3973 110.128 13.808C110.8 14.0693 111.416 14.3307 111.976 14.592C112.685 15.0027 113.245 15.3947 113.656 15.768C114.963 16.9627 115.952 18.4 116.624 20.08C117.296 21.76 117.632 23.4587 117.632 25.176C117.632 27.192 117.147 29.04 116.176 30.72C115.243 32.4 113.731 33.6507 111.64 34.472C111.565 34.5467 111.453 34.6027 111.304 34.64C111.192 34.64 111.099 34.6587 111.024 34.696L116.176 45.056L116.68 45.952C116.755 46.1013 116.848 46.2693 116.96 46.456C117.072 46.6427 117.165 46.8293 117.24 47.016C117.352 47.2027 117.445 47.408 117.52 47.632C117.632 47.856 117.744 48.0613 117.856 48.248C117.968 48.7707 118.061 49.2 118.136 49.536ZM104.136 29.6C104.808 29.6 105.443 29.488 106.04 29.264C106.675 29.0027 107.235 28.6667 107.72 28.256C108.243 27.8453 108.672 27.3787 109.008 26.856C109.344 26.296 109.531 25.6987 109.568 25.064C109.717 23.1973 109.232 21.816 108.112 20.92C106.992 19.9867 105.517 19.4827 103.688 19.408C102.605 19.3333 101.411 19.296 100.104 19.296C98.8347 19.296 97.6213 19.296 96.464 19.296C96.5013 20.8267 96.5013 22.3947 96.464 24C96.464 25.568 96.464 27.4347 96.464 29.6H104.136ZM124.39 46.064L124.446 41.64L124.502 33.408C124.539 32.2133 124.558 30.9813 124.558 29.712C124.558 28.4427 124.558 27.136 124.558 25.792C124.558 24.448 124.558 23.2533 124.558 22.208C124.558 21.1627 124.595 19.9867 124.67 18.68V18.456C124.707 18.0827 124.726 17.7093 124.726 17.336C124.763 16.9253 124.782 16.5147 124.782 16.104C124.819 15.432 125.025 14.704 125.398 13.92C125.659 13.3973 126.051 12.9493 126.574 12.576C127.171 12.2773 127.75 12.128 128.31 12.128C128.609 12.128 128.87 12.1467 129.094 12.184C129.355 12.184 129.598 12.2027 129.822 12.24C130.307 12.3147 130.737 12.5387 131.11 12.912C131.334 13.0987 131.539 13.3973 131.726 13.808C131.801 14.032 131.857 14.256 131.894 14.48C131.969 14.6667 132.025 14.872 132.062 15.096C132.099 15.3573 132.118 15.6 132.118 15.824C132.155 16.048 132.174 16.272 132.174 16.496C132.174 16.7573 132.155 17 132.118 17.224C132.118 17.4107 132.118 17.616 132.118 17.84V18.792L131.782 47.856V48.416C131.782 48.528 131.763 48.6773 131.726 48.864C131.726 49.0133 131.707 49.2 131.67 49.424C131.595 49.6107 131.521 49.816 131.446 50.04C131.409 50.2267 131.353 50.432 131.278 50.656C131.166 50.8427 131.035 51.0293 130.886 51.216C130.774 51.3653 130.625 51.5147 130.438 51.664C130.139 51.9627 129.654 52.168 128.982 52.28C127.974 52.504 127.022 52.4107 126.126 52C125.678 51.7013 125.361 51.328 125.174 50.88C125.062 50.768 125.006 50.656 125.006 50.544C124.969 50.4693 124.931 50.4133 124.894 50.376C124.857 50.3387 124.819 50.2827 124.782 50.208C124.707 50.0213 124.651 49.8347 124.614 49.648C124.577 49.424 124.558 49.2 124.558 48.976C124.521 48.7893 124.483 48.6027 124.446 48.416C124.446 48.2293 124.427 48.0427 124.39 47.856C124.353 47.5573 124.353 47.24 124.39 46.904V46.064ZM148.261 13.696C150.763 12.7627 153.021 12.352 155.037 12.464C157.091 12.576 158.92 13.0987 160.525 14.032C162.131 14.928 163.493 16.1413 164.613 17.672C165.771 19.2027 166.704 20.92 167.413 22.824C167.973 24.2427 168.403 25.736 168.701 27.304C169 28.872 169.168 30.44 169.205 32.008C169.28 33.5387 169.224 35.0507 169.037 36.544C168.888 38.0373 168.627 39.4187 168.253 40.688C168.029 41.5467 167.768 42.3307 167.469 43.04C167.171 43.7493 166.816 44.4587 166.405 45.168C165.472 46.7733 164.259 48.08 162.765 49.088C161.309 50.096 159.704 50.8053 157.949 51.216C156.755 51.5147 155.523 51.664 154.253 51.664C152.984 51.6267 151.733 51.4587 150.501 51.16C149.269 50.824 148.075 50.3573 146.917 49.76C145.797 49.1253 144.771 48.3413 143.837 47.408C142.68 46.288 141.728 45 140.981 43.544C140.235 42.0507 139.656 40.5013 139.245 38.896C138.835 37.2533 138.573 35.6107 138.461 33.968C138.349 32.3253 138.349 30.7573 138.461 29.264C138.573 27.8827 138.835 26.408 139.245 24.84C139.693 23.272 140.328 21.76 141.149 20.304C141.971 18.848 142.96 17.5413 144.117 16.384C145.312 15.1893 146.693 14.2933 148.261 13.696ZM161.365 37.664C161.813 35.9093 162 33.9307 161.925 31.728C161.851 29.5253 161.496 27.4533 160.861 25.512C160.451 24.3173 159.928 23.272 159.293 22.376C158.696 21.4427 157.968 20.7333 157.109 20.248C156.288 19.7627 155.317 19.52 154.197 19.52C153.077 19.52 151.827 19.856 150.445 20.528C149.624 20.9387 148.915 21.4987 148.317 22.208C147.757 22.9173 147.291 23.72 146.917 24.616C146.581 25.512 146.301 26.4453 146.077 27.416C145.891 28.3867 145.779 29.32 145.741 30.216C145.667 31.1867 145.648 32.2133 145.685 33.296C145.723 34.3413 145.835 35.4053 146.021 36.488C146.245 37.5333 146.544 38.5413 146.917 39.512C147.291 40.4453 147.795 41.2853 148.429 42.032C149.4 43.152 150.52 43.936 151.789 44.384C153.096 44.7947 154.384 44.8507 155.653 44.552C157.707 44.104 159.275 42.7413 160.357 40.464C160.805 39.6427 161.141 38.7093 161.365 37.664ZM180.675 12.632C180.339 13.9387 179.91 15.3573 179.387 16.888C178.864 18.4187 178.286 19.9493 177.651 21.48C177.054 22.9733 176.456 24.392 175.859 25.736H172.219C172.48 24.6907 172.742 23.5707 173.003 22.376C173.302 21.1813 173.563 19.9867 173.787 18.792C174.048 17.56 174.272 16.3653 174.459 15.208C174.683 14.0507 174.87 12.9867 175.019 12.016H180.283L180.675 12.632ZM212.584 35.704C212.771 36.2267 212.901 36.824 212.976 37.496C213.088 38.1307 213.144 38.784 213.144 39.456C213.144 40.128 213.088 40.8 212.976 41.472C212.901 42.1067 212.789 42.6667 212.64 43.152C212.043 45.2427 210.848 46.9973 209.056 48.416C207.264 49.7973 205.211 50.8053 202.896 51.44C200.619 52.0747 198.248 52.2987 195.784 52.112C193.357 51.9253 191.192 51.3093 189.288 50.264C188.093 49.592 187.067 48.7707 186.208 47.8C185.349 46.8293 184.621 45.7467 184.024 44.552C183.8 44.1413 183.651 43.6747 183.576 43.152C183.539 42.592 183.595 42.0693 183.744 41.584C183.893 41.0613 184.136 40.6133 184.472 40.24C184.808 39.8293 185.275 39.5493 185.872 39.4C186.245 39.3253 186.656 39.288 187.104 39.288C187.589 39.288 188.056 39.3627 188.504 39.512C188.952 39.624 189.363 39.8293 189.736 40.128C190.109 40.3893 190.408 40.7627 190.632 41.248C191.043 42.032 191.621 42.76 192.368 43.432C193.152 44.0667 193.973 44.5893 194.832 45C196.064 45.4107 197.296 45.5787 198.528 45.504C199.797 45.4293 200.936 45.1493 201.944 44.664C202.989 44.1787 203.829 43.5253 204.464 42.704C205.099 41.8453 205.416 40.8747 205.416 39.792C205.416 38.896 205.285 38.168 205.024 37.608C204.763 37.0107 204.389 36.5253 203.904 36.152C203.456 35.7413 202.896 35.4053 202.224 35.144C201.589 34.8827 200.88 34.6587 200.096 34.472C199.2 34.2853 198.285 34.1547 197.352 34.08C196.456 34.0053 195.541 33.912 194.608 33.8C193.675 33.688 192.76 33.5387 191.864 33.352C190.968 33.1653 190.091 32.8853 189.232 32.512C187.515 31.8027 186.208 30.72 185.312 29.264C184.416 27.808 183.875 26.24 183.688 24.56C183.539 22.88 183.744 21.2187 184.304 19.576C184.864 17.896 185.76 16.4587 186.992 15.264C188.187 14.1813 189.605 13.416 191.248 12.968C192.928 12.4827 194.776 12.2027 196.792 12.128C197.912 12.0907 199.032 12.128 200.152 12.24C201.309 12.352 202.411 12.5387 203.456 12.8C204.539 13.0613 205.528 13.3973 206.424 13.808C207.357 14.2187 208.16 14.704 208.832 15.264C209.317 15.6373 209.803 16.1413 210.288 16.776C210.773 17.3733 211.147 18.0267 211.408 18.736C211.669 19.408 211.744 20.0613 211.632 20.696C211.557 21.3307 211.165 21.872 210.456 22.32C209.859 22.6933 209.28 22.8613 208.72 22.824C208.197 22.7493 207.693 22.5813 207.208 22.32C206.723 22.0213 206.256 21.6853 205.808 21.312C205.36 20.9387 204.949 20.6027 204.576 20.304C203.568 19.5573 202.317 19.0533 200.824 18.792C199.331 18.5307 197.931 18.4747 196.624 18.624C195.803 18.736 195.037 18.9227 194.328 19.184C193.619 19.4453 193.003 19.8 192.48 20.248C191.995 20.696 191.603 21.256 191.304 21.928C191.043 22.5627 190.949 23.2907 191.024 24.112C191.061 24.7093 191.229 25.2133 191.528 25.624C191.864 26.0347 192.256 26.3707 192.704 26.632C193.189 26.8933 193.712 27.0987 194.272 27.248C194.832 27.3973 195.392 27.5093 195.952 27.584C197.632 27.808 199.312 27.976 200.992 28.088C202.672 28.2 204.315 28.5733 205.92 29.208C207.563 29.8427 208.963 30.7013 210.12 31.784C211.277 32.8667 212.099 34.1733 212.584 35.704ZM256.441 15.88C257.86 17.1867 258.905 18.7547 259.577 20.584C260.249 22.376 260.51 24.168 260.361 25.96C260.212 27.6773 259.67 29.264 258.737 30.72C257.804 32.1387 256.385 33.2213 254.481 33.968C252.988 34.6027 251.513 35.0507 250.057 35.312C248.601 35.5733 246.996 35.7787 245.241 35.928C244.457 36.0027 243.785 36.0587 243.225 36.096C242.702 36.096 242.086 36.1147 241.377 36.152C241.228 36.152 240.966 36.152 240.593 36.152C240.257 36.152 240.014 36.1707 239.865 36.208V47.8C239.753 48.5093 239.604 49.2373 239.417 49.984C239.268 50.7307 238.838 51.3093 238.129 51.72C237.718 51.944 237.214 52.0747 236.617 52.112C236.02 52.1493 235.478 52.1307 234.993 52.056C234.47 51.9813 234.022 51.8507 233.649 51.664C233.313 51.44 233.033 51.0667 232.809 50.544C232.66 50.208 232.51 49.8347 232.361 49.424C232.249 48.976 232.193 48.4347 232.193 47.8V16.832C232.193 16.5707 232.212 16.328 232.249 16.104C232.286 15.88 232.324 15.656 232.361 15.432C232.436 15.2453 232.492 15.04 232.529 14.816C232.566 14.592 232.622 14.3867 232.697 14.2C232.772 14.0133 232.846 13.8453 232.921 13.696C233.033 13.5467 233.164 13.416 233.313 13.304C233.5 13.1173 233.78 12.9493 234.153 12.8C234.564 12.6507 235.161 12.576 235.945 12.576H236.057C237.214 12.5013 238.502 12.4453 239.921 12.408C241.34 12.3333 242.516 12.352 243.449 12.464C243.972 12.5387 244.457 12.5947 244.905 12.632C245.353 12.632 245.782 12.6507 246.193 12.688C246.641 12.7253 247.089 12.7627 247.537 12.8C247.985 12.8373 248.433 12.8933 248.881 12.968C249.254 13.0427 249.59 13.0987 249.889 13.136C250.225 13.1733 250.561 13.2293 250.897 13.304C251.196 13.3787 251.513 13.4533 251.849 13.528C252.222 13.6027 252.558 13.7333 252.857 13.92C253.641 14.144 254.294 14.424 254.817 14.76C255.34 15.096 255.881 15.4693 256.441 15.88ZM253.081 25.12C253.118 24.224 252.932 23.44 252.521 22.768C252.148 22.096 251.606 21.536 250.897 21.088C250.188 20.64 249.385 20.2853 248.489 20.024C247.593 19.7627 246.697 19.576 245.801 19.464C245.577 19.464 245.26 19.464 244.849 19.464C244.476 19.4267 244.065 19.408 243.617 19.408C243.169 19.3707 242.74 19.352 242.329 19.352C241.956 19.3147 241.657 19.296 241.433 19.296C241.246 19.2587 241.022 19.24 240.761 19.24C240.5 19.24 240.201 19.24 239.865 19.24C239.902 20.3973 239.921 21.5173 239.921 22.6C239.921 23.6453 239.921 24.784 239.921 26.016C239.884 26.688 239.865 27.36 239.865 28.032C239.865 28.704 239.865 29.3573 239.865 29.992L243.337 29.936C244.233 29.936 245.222 29.88 246.305 29.768C247.388 29.656 248.414 29.432 249.385 29.096C250.356 28.76 251.177 28.2747 251.849 27.64C252.558 27.0053 252.969 26.1653 253.081 25.12ZM266.687 46.064L266.743 41.64L266.799 33.408C266.836 32.2133 266.855 30.9813 266.855 29.712C266.855 28.4427 266.855 27.136 266.855 25.792C266.855 24.448 266.855 23.2533 266.855 22.208C266.855 21.1627 266.892 19.9867 266.967 18.68V18.456C267.004 18.0827 267.023 17.7093 267.023 17.336C267.06 16.9253 267.079 16.5147 267.079 16.104C267.116 15.432 267.322 14.704 267.695 13.92C267.956 13.3973 268.348 12.9493 268.871 12.576C269.468 12.2773 270.047 12.128 270.607 12.128C270.906 12.128 271.167 12.1467 271.391 12.184C271.652 12.184 271.895 12.2027 272.119 12.24C272.604 12.3147 273.034 12.5387 273.407 12.912C273.631 13.0987 273.836 13.3973 274.023 13.808C274.098 14.032 274.154 14.256 274.191 14.48C274.266 14.6667 274.322 14.872 274.359 15.096C274.396 15.3573 274.415 15.6 274.415 15.824C274.452 16.048 274.471 16.272 274.471 16.496C274.471 16.7573 274.452 17 274.415 17.224C274.415 17.4107 274.415 17.616 274.415 17.84V18.792L274.079 47.856V48.416C274.079 48.528 274.06 48.6773 274.023 48.864C274.023 49.0133 274.004 49.2 273.967 49.424C273.892 49.6107 273.818 49.816 273.743 50.04C273.706 50.2267 273.65 50.432 273.575 50.656C273.463 50.8427 273.332 51.0293 273.183 51.216C273.071 51.3653 272.922 51.5147 272.735 51.664C272.436 51.9627 271.951 52.168 271.279 52.28C270.271 52.504 269.319 52.4107 268.423 52C267.975 51.7013 267.658 51.328 267.471 50.88C267.359 50.768 267.303 50.656 267.303 50.544C267.266 50.4693 267.228 50.4133 267.191 50.376C267.154 50.3387 267.116 50.2827 267.079 50.208C267.004 50.0213 266.948 49.8347 266.911 49.648C266.874 49.424 266.855 49.2 266.855 48.976C266.818 48.7893 266.78 48.6027 266.743 48.416C266.743 48.2293 266.724 48.0427 266.687 47.856C266.65 47.5573 266.65 47.24 266.687 46.904V46.064ZM307.974 20.584C307.452 21.368 306.91 22.1333 306.35 22.88C305.79 23.6267 305.249 24.3733 304.726 25.12C302.374 28.48 300.022 31.8213 297.67 35.144C295.356 38.4667 293.041 41.8267 290.726 45.224C291.286 45.224 291.716 45.224 292.014 45.224C292.313 45.224 292.556 45.224 292.742 45.224C292.966 45.224 293.209 45.224 293.47 45.224C293.732 45.224 294.124 45.2427 294.646 45.28C295.169 45.28 295.878 45.28 296.774 45.28C297.708 45.28 298.94 45.28 300.47 45.28C301.441 45.28 302.393 45.28 303.326 45.28C304.297 45.28 305.268 45.3173 306.238 45.392C306.425 45.4293 306.63 45.4667 306.854 45.504C307.078 45.504 307.284 45.5413 307.47 45.616L307.806 45.784C307.806 45.784 307.918 45.8213 308.142 45.896C308.59 46.1573 308.964 46.456 309.262 46.792C309.785 47.5387 309.934 48.3787 309.71 49.312C309.673 49.5733 309.58 49.816 309.43 50.04C309.318 50.2267 309.188 50.3947 309.038 50.544C308.74 50.8427 308.385 51.048 307.974 51.16C307.564 51.384 307.134 51.5147 306.686 51.552C306.5 51.5893 306.313 51.6267 306.126 51.664C305.977 51.664 305.809 51.664 305.622 51.664H285.294C285.07 51.664 284.846 51.664 284.622 51.664C284.398 51.664 284.174 51.6453 283.95 51.608C283.838 51.5707 283.726 51.552 283.614 51.552C283.54 51.552 283.465 51.5333 283.39 51.496C283.241 51.4587 283.092 51.44 282.942 51.44C282.83 51.4027 282.681 51.3653 282.494 51.328C282.084 51.104 281.766 50.8987 281.542 50.712C281.094 50.376 280.852 50.0213 280.814 49.648V49.592C280.74 49.4053 280.684 49.2373 280.646 49.088C280.646 48.9387 280.665 48.752 280.702 48.528C280.702 48.4907 280.684 48.472 280.646 48.472C280.646 48.4347 280.646 48.3787 280.646 48.304C280.646 48.08 280.684 47.8747 280.758 47.688C280.833 47.464 280.908 47.24 280.982 47.016C281.057 46.904 281.113 46.792 281.15 46.68C281.225 46.5307 281.318 46.4 281.43 46.288C281.505 46.1013 281.598 45.9147 281.71 45.728C281.86 45.5413 281.972 45.3547 282.046 45.168C282.121 45.0187 282.196 44.8693 282.27 44.72C282.382 44.5333 282.476 44.384 282.55 44.272C282.7 44.1227 282.812 43.992 282.886 43.88C282.998 43.7307 283.092 43.5813 283.166 43.432L286.078 39.344L291.286 31.784C292.108 30.7013 292.91 29.5813 293.694 28.424C294.516 27.2293 295.356 25.9973 296.214 24.728C296.849 23.7573 297.428 22.9173 297.95 22.208C298.473 21.4613 299.033 20.6587 299.63 19.8C298.324 19.8 297.092 19.8 295.934 19.8C294.814 19.8 293.694 19.8 292.574 19.8C291.454 19.7627 290.278 19.744 289.046 19.744C287.852 19.7067 286.526 19.6693 285.07 19.632C284.548 19.5947 283.932 19.52 283.222 19.408C282.55 19.2587 281.99 18.9787 281.542 18.568C281.132 18.1947 280.889 17.8027 280.814 17.392C280.702 17.0187 280.646 16.5707 280.646 16.048C280.646 15.4507 280.814 14.928 281.15 14.48C281.524 13.9947 281.99 13.64 282.55 13.416C283.334 13.1173 284.1 12.968 284.846 12.968C285.257 12.9307 285.668 12.912 286.078 12.912C286.489 12.912 286.881 12.8747 287.254 12.8H287.534C288.617 12.7627 290.222 12.7627 292.35 12.8C294.516 12.8 297.222 12.8 300.47 12.8C300.881 12.8 301.31 12.8 301.758 12.8C302.206 12.7627 302.636 12.7627 303.046 12.8C303.905 12.8747 304.801 12.8933 305.734 12.856C306.705 12.8187 307.582 13.024 308.366 13.472C308.59 13.584 308.796 13.7147 308.982 13.864C309.169 14.0133 309.374 14.144 309.598 14.256C310.046 14.6667 310.252 15.152 310.214 15.712C310.214 16.272 310.084 16.8507 309.822 17.448C309.598 18.0453 309.3 18.624 308.926 19.184C308.553 19.744 308.236 20.2107 307.974 20.584ZM342.099 20.584C341.577 21.368 341.035 22.1333 340.475 22.88C339.915 23.6267 339.374 24.3733 338.851 25.12C336.499 28.48 334.147 31.8213 331.795 35.144C329.481 38.4667 327.166 41.8267 324.851 45.224C325.411 45.224 325.841 45.224 326.139 45.224C326.438 45.224 326.681 45.224 326.867 45.224C327.091 45.224 327.334 45.224 327.595 45.224C327.857 45.224 328.249 45.2427 328.771 45.28C329.294 45.28 330.003 45.28 330.899 45.28C331.833 45.28 333.065 45.28 334.595 45.28C335.566 45.28 336.518 45.28 337.451 45.28C338.422 45.28 339.393 45.3173 340.363 45.392C340.55 45.4293 340.755 45.4667 340.979 45.504C341.203 45.504 341.409 45.5413 341.595 45.616L341.931 45.784C341.931 45.784 342.043 45.8213 342.267 45.896C342.715 46.1573 343.089 46.456 343.387 46.792C343.91 47.5387 344.059 48.3787 343.835 49.312C343.798 49.5733 343.705 49.816 343.555 50.04C343.443 50.2267 343.313 50.3947 343.163 50.544C342.865 50.8427 342.51 51.048 342.099 51.16C341.689 51.384 341.259 51.5147 340.811 51.552C340.625 51.5893 340.438 51.6267 340.251 51.664C340.102 51.664 339.934 51.664 339.747 51.664H319.419C319.195 51.664 318.971 51.664 318.747 51.664C318.523 51.664 318.299 51.6453 318.075 51.608C317.963 51.5707 317.851 51.552 317.739 51.552C317.665 51.552 317.59 51.5333 317.515 51.496C317.366 51.4587 317.217 51.44 317.067 51.44C316.955 51.4027 316.806 51.3653 316.619 51.328C316.209 51.104 315.891 50.8987 315.667 50.712C315.219 50.376 314.977 50.0213 314.939 49.648V49.592C314.865 49.4053 314.809 49.2373 314.771 49.088C314.771 48.9387 314.79 48.752 314.827 48.528C314.827 48.4907 314.809 48.472 314.771 48.472C314.771 48.4347 314.771 48.3787 314.771 48.304C314.771 48.08 314.809 47.8747 314.883 47.688C314.958 47.464 315.033 47.24 315.107 47.016C315.182 46.904 315.238 46.792 315.275 46.68C315.35 46.5307 315.443 46.4 315.555 46.288C315.63 46.1013 315.723 45.9147 315.835 45.728C315.985 45.5413 316.097 45.3547 316.171 45.168C316.246 45.0187 316.321 44.8693 316.395 44.72C316.507 44.5333 316.601 44.384 316.675 44.272C316.825 44.1227 316.937 43.992 317.011 43.88C317.123 43.7307 317.217 43.5813 317.291 43.432L320.203 39.344L325.411 31.784C326.233 30.7013 327.035 29.5813 327.819 28.424C328.641 27.2293 329.481 25.9973 330.339 24.728C330.974 23.7573 331.553 22.9173 332.075 22.208C332.598 21.4613 333.158 20.6587 333.755 19.8C332.449 19.8 331.217 19.8 330.059 19.8C328.939 19.8 327.819 19.8 326.699 19.8C325.579 19.7627 324.403 19.744 323.171 19.744C321.977 19.7067 320.651 19.6693 319.195 19.632C318.673 19.5947 318.057 19.52 317.347 19.408C316.675 19.2587 316.115 18.9787 315.667 18.568C315.257 18.1947 315.014 17.8027 314.939 17.392C314.827 17.0187 314.771 16.5707 314.771 16.048C314.771 15.4507 314.939 14.928 315.275 14.48C315.649 13.9947 316.115 13.64 316.675 13.416C317.459 13.1173 318.225 12.968 318.971 12.968C319.382 12.9307 319.793 12.912 320.203 12.912C320.614 12.912 321.006 12.8747 321.379 12.8H321.659C322.742 12.7627 324.347 12.7627 326.475 12.8C328.641 12.8 331.347 12.8 334.595 12.8C335.006 12.8 335.435 12.8 335.883 12.8C336.331 12.7627 336.761 12.7627 337.171 12.8C338.03 12.8747 338.926 12.8933 339.859 12.856C340.83 12.8187 341.707 13.024 342.491 13.472C342.715 13.584 342.921 13.7147 343.107 13.864C343.294 14.0133 343.499 14.144 343.723 14.256C344.171 14.6667 344.377 15.152 344.339 15.712C344.339 16.272 344.209 16.8507 343.947 17.448C343.723 18.0453 343.425 18.624 343.051 19.184C342.678 19.744 342.361 20.2107 342.099 20.584Z" fill="#FF9F0D"/>
<path d="M354.37 44.61C359.54 47.169 365.231 48.5002 371 48.5002C376.769 48.5002 382.46 47.169 387.63 44.61L385.37 40C384.138 37.5131 383.498 34.7752 383.5 32V27.56C383.512 27.0735 383.352 26.5983 383.048 26.2179C382.745 25.8375 382.317 25.5762 381.84 25.48C381.55 25.43 381.253 25.4444 380.97 25.5223C380.686 25.6002 380.424 25.7395 380.2 25.9305C379.977 26.1215 379.798 26.3593 379.677 26.6271C379.556 26.8949 379.496 27.1861 379.5 27.48V28.16L371.89 12.8C371.806 12.6362 371.678 12.4987 371.521 12.4027C371.364 12.3068 371.184 12.256 371 12.256C370.816 12.256 370.635 12.3068 370.478 12.4027C370.321 12.4987 370.194 12.6362 370.11 12.8L367.5 18.07V16C367.5 15.6022 367.342 15.2206 367.061 14.9393C366.779 14.658 366.398 14.5 366 14.5C365.602 14.5 365.221 14.658 364.939 14.9393C364.658 15.2206 364.5 15.6022 364.5 16V21.8C364.515 23.3343 364.173 24.851 363.5 26.23C362.24 28.79 360.89 31.5 359.5 34.23V31.5C359.5 31.1022 359.342 30.7206 359.061 30.4393C358.779 30.158 358.398 30 358 30C357.602 30 357.221 30.158 356.939 30.4393C356.658 30.7206 356.5 31.1022 356.5 31.5V38C356.51 39.537 356.168 41.0559 355.5 42.44L354.37 44.61Z" fill="#FFE500"/>
<path d="M371 45.25C365.707 45.2512 360.475 44.1263 355.65 41.95C355.59 42.1 355.53 42.26 355.46 42.4L354.37 44.61C359.54 47.169 365.231 48.5002 371 48.5002C376.769 48.5002 382.46 47.169 387.63 44.61L386.32 42C381.501 44.1547 376.279 45.2624 371 45.25Z" fill="#EBCB00"/>
<path d="M364.5 33.5C365.693 33.5 366.838 33.0259 367.682 32.182C368.526 31.3381 369 30.1935 369 29C369 27.8065 368.526 26.6619 367.682 25.818C366.838 24.9741 365.693 24.5 364.5 24.5H364.31C363.2 26.73 362.02 29.12 360.82 31.56C361.23 32.1575 361.779 32.6462 362.421 32.9842C363.062 33.3222 363.775 33.4992 364.5 33.5ZM371.5 23C371.499 23.5913 371.614 24.1771 371.84 24.7236C372.065 25.2702 372.397 25.7668 372.815 26.1849C373.233 26.603 373.73 26.9345 374.276 27.1601C374.823 27.3858 375.409 27.5013 376 27.5C376.981 27.498 377.934 27.171 378.71 26.57L374.8 18.68C373.853 18.9402 373.018 19.5036 372.422 20.2838C371.826 21.0641 371.502 22.0182 371.5 23ZM369 41.5C369 40.3065 368.526 39.1619 367.682 38.318C366.838 37.4741 365.693 37 364.5 37C363.306 37 362.162 37.4741 361.318 38.318C360.474 39.1619 360 40.3065 360 41.5C360 42.6935 360.474 43.8381 361.318 44.682C362.162 45.5259 363.306 46 364.5 46C365.693 46 366.838 45.5259 367.682 44.682C368.526 43.8381 369 42.6935 369 41.5Z" fill="#FF6242" stroke="#45413C" stroke-linecap="round" stroke-linejoin="round"/>
<path d="M371 48.5C365.23 48.508 359.537 47.1764 354.37 44.61C354.37 44.61 351.9 44.3 351.5 46.5C350.5 52 366.83 53.5 371 53.5C375.17 53.5 391.5 52 390.5 46.5C390.1 44.3 387.63 44.61 387.63 44.61C382.462 47.1764 376.77 48.508 371 48.5Z" fill="#F0D5A8"/>
<path d="M390.46 46.34C386.82 49.93 374.6 51 371 51C367.4 51 355.18 49.93 351.54 46.34V46.5C350.54 52 366.87 53.5 371.04 53.5C375.21 53.5 391.5 52 390.5 46.5C390.49 46.44 390.47 46.4 390.46 46.34Z" fill="#F7E5C6"/>
<path d="M371 48.5C365.23 48.508 359.537 47.1764 354.37 44.61C354.37 44.61 351.9 44.3 351.5 46.5C350.5 52 366.83 53.5 371 53.5C375.17 53.5 391.5 52 390.5 46.5C390.1 44.3 387.63 44.61 387.63 44.61C382.462 47.1764 376.77 48.508 371 48.5Z" stroke="#45413C" stroke-linecap="round" stroke-linejoin="round"/>
<path d="M382.5 39C382.5 37.8065 382.026 36.6619 381.182 35.818C380.338 34.9741 379.193 34.5 378 34.5C376.807 34.5 375.662 34.9741 374.818 35.818C373.974 36.6619 373.5 37.8065 373.5 39C373.5 40.1935 373.974 41.3381 374.818 42.182C375.662 43.0259 376.807 43.5 378 43.5C379.193 43.5 380.338 43.0259 381.182 42.182C382.026 41.3381 382.5 40.1935 382.5 39Z" fill="#FF6242" stroke="#45413C" stroke-linecap="round" stroke-linejoin="round"/>
<path d="M379.5 28.18V30.5M367.5 18.07L370.11 12.8C370.194 12.6362 370.321 12.4987 370.478 12.4027C370.635 12.3068 370.816 12.256 371 12.256C371.184 12.256 371.364 12.3068 371.521 12.4027C371.678 12.4987 371.806 12.6362 371.89 12.8L379.5 28.16V27.48C379.496 27.1861 379.556 26.8949 379.677 26.6271C379.798 26.3593 379.977 26.1215 380.2 25.9305C380.424 25.7395 380.686 25.6002 380.97 25.5223C381.253 25.4444 381.55 25.43 381.84 25.48C382.317 25.5762 382.745 25.8375 383.048 26.2179C383.352 26.5983 383.512 27.0735 383.5 27.56V32C383.498 34.7752 384.138 37.5131 385.37 40L387.63 44.61C382.46 47.169 376.769 48.5002 371 48.5002C365.231 48.5002 359.54 47.169 354.37 44.61L355.5 42.44C356.168 41.0559 356.51 39.537 356.5 38V31.5C356.5 31.1022 356.658 30.7206 356.939 30.4393C357.221 30.158 357.602 30 358 30C358.398 30 358.779 30.158 359.061 30.4393C359.342 30.7206 359.5 31.1022 359.5 31.5V34.23C360.89 31.5 362.24 28.79 363.5 26.23C364.173 24.851 364.515 23.3343 364.5 21.8V16C364.5 15.6022 364.658 15.2206 364.939 14.9393C365.221 14.658 365.602 14.5 366 14.5C366.398 14.5 366.779 14.658 367.061 14.9393C367.342 15.2206 367.5 15.6022 367.5 16V18.07ZM367.5 18.07V20.5M359.5 36V34.24" stroke="#45413C" stroke-linecap="round" stroke-linejoin="round"/>
</svg>
